<mxGraphModel dx="1422" dy="794" grid="1" gridSize="10" guides="1" tooltips="1" connect="1" arrows="1" fold="1" page="1" pageScale="1" pageWidth="1169" pageHeight="827" math="0" shadow="0">
  <root>
    <mxCell id="0"/>
    <mxCell id="1" parent="0"/>
    
    <!-- Title -->
    <mxCell id="kg_title" value="Knowledge Graph Construction and Usage Process" style="text;html=1;strokeColor=none;fillColor=none;align=center;verticalAlign=middle;whiteSpace=wrap;rounded=0;fontSize=16;fontStyle=1;" vertex="1" parent="1">
      <mxGeometry x="400" y="20" width="400" height="30" as="geometry"/>
    </mxCell>
    
    <!-- Data Sources Group -->
    <mxCell id="data_sources_group" value="Data Sources &amp; Collection" style="swimlane;whiteSpace=wrap;html=1;fillColor=#e3f2fd;strokeColor=#1976d2;fontStyle=1;startSize=30;" vertex="1" parent="1">
      <mxGeometry x="20" y="70" width="250" height="300" as="geometry"/>
    </mxCell>
    
    <mxCell id="real_time_group" value="Real-Time Sources" style="swimlane;whiteSpace=wrap;html=1;fillColor=none;strokeColor=none;fontStyle=1;startSize=25;" vertex="1" parent="data_sources_group">
      <mxGeometry x="10" y="40" width="230" height="100" as="geometry"/>
    </mxCell>
    
    <mxCell id="rts1" value="CI/CD Pipeline Events&#xa;🔄 Build, Test, Deploy" style="rounded=1;whiteSpace=wrap;html=1;fillColor=#E3F2FD;strokeColor=#1976D2;fontSize=10;" vertex="1" parent="real_time_group">
      <mxGeometry x="10" y="30" width="210" height="25" as="geometry"/>
    </mxCell>
    
    <mxCell id="rts2" value="Code Repository Changes&#xa;💻 Commits, PRs, Branches" style="rounded=1;whiteSpace=wrap;html=1;fillColor=#E3F2FD;strokeColor=#1976D2;fontSize=10;" vertex="1" parent="real_time_group">
      <mxGeometry x="10" y="60" width="210" height="25" as="geometry"/>
    </mxCell>
    
    <mxCell id="batch_group" value="Batch Sources" style="swimlane;whiteSpace=wrap;html=1;fillColor=none;strokeColor=none;fontStyle=1;startSize=25;" vertex="1" parent="data_sources_group">
      <mxGeometry x="10" y="150" width="230" height="70" as="geometry"/>
    </mxCell>
    
    <mxCell id="bs1" value="Documentation Analysis&#xa;📚 Confluence, Wikis" style="rounded=1;whiteSpace=wrap;html=1;fillColor=#E3F2FD;strokeColor=#1976D2;fontSize=10;" vertex="1" parent="batch_group">
      <mxGeometry x="10" y="30" width="210" height="25" as="geometry"/>
    </mxCell>
    
    <mxCell id="feedback_group" value="Feedback Sources" style="swimlane;whiteSpace=wrap;html=1;fillColor=none;strokeColor=none;fontStyle=1;startSize=25;" vertex="1" parent="data_sources_group">
      <mxGeometry x="10" y="230" width="230" height="60" as="geometry"/>
    </mxCell>
    
    <mxCell id="fs1" value="Human Review Feedback&#xa;👥 Approvals, Rejections, Comments" style="rounded=1;whiteSpace=wrap;html=1;fillColor=#E3F2FD;strokeColor=#1976D2;fontSize=10;" vertex="1" parent="feedback_group">
      <mxGeometry x="10" y="30" width="210" height="25" as="geometry"/>
    </mxCell>
    
    <!-- KG Construction Pipeline -->
    <mxCell id="kg_pipeline_group" value="Knowledge Graph Construction Pipeline [AI]" style="swimlane;whiteSpace=wrap;html=1;fillColor=#fff3e0;strokeColor=#f57c00;fontStyle=1;startSize=30;" vertex="1" parent="1">
      <mxGeometry x="300" y="70" width="320" height="300" as="geometry"/>
    </mxCell>
    
    <mxCell id="stage1_group" value="Stage 1: Data Ingestion &amp; Normalization" style="swimlane;whiteSpace=wrap;html=1;fillColor=none;strokeColor=none;fontStyle=1;startSize=25;" vertex="1" parent="kg_pipeline_group">
      <mxGeometry x="10" y="40" width="300" height="70" as="geometry"/>
    </mxCell>
    
    <mxCell id="kgp1" value="Data Collection Agent&#xa;📡 Multi-Protocol Polling" style="rounded=1;whiteSpace=wrap;html=1;fillColor=#F5A623;strokeColor=#C7851B;fontColor=#ffffff;fontSize=10;" vertex="1" parent="stage1_group">
      <mxGeometry x="10" y="30" width="130" height="30" as="geometry"/>
    </mxCell>
    
    <mxCell id="kgp2" value="Format Normalizer Agent&#xa;🔧 Schema Transformation" style="rounded=1;whiteSpace=wrap;html=1;fillColor=#F5A623;strokeColor=#C7851B;fontColor=#ffffff;fontSize=10;" vertex="1" parent="stage1_group">
      <mxGeometry x="150" y="30" width="140" height="30" as="geometry"/>
    </mxCell>
    
    <mxCell id="stage2_group" value="Stage 2: Entity &amp; Relationship Processing" style="swimlane;whiteSpace=wrap;html=1;fillColor=none;strokeColor=none;fontStyle=1;startSize=25;" vertex="1" parent="kg_pipeline_group">
      <mxGeometry x="10" y="120" width="300" height="70" as="geometry"/>
    </mxCell>
    
    <mxCell id="kgp3" value="Entity Extraction Agent&#xa;🎯 NLP &amp; Pattern Recognition" style="rounded=1;whiteSpace=wrap;html=1;fillColor=#F5A623;strokeColor=#C7851B;fontColor=#ffffff;fontSize=10;" vertex="1" parent="stage2_group">
      <mxGeometry x="10" y="30" width="130" height="30" as="geometry"/>
    </mxCell>
    
    <mxCell id="kgp4" value="Relationship Mining Agent&#xa;🔗 Semantic Discovery" style="rounded=1;whiteSpace=wrap;html=1;fillColor=#F5A623;strokeColor=#C7851B;fontColor=#ffffff;fontSize=10;" vertex="1" parent="stage2_group">
      <mxGeometry x="150" y="30" width="140" height="30" as="geometry"/>
    </mxCell>
    
    <mxCell id="stage3_group" value="Stage 3: Graph Construction &amp; Optimization" style="swimlane;whiteSpace=wrap;html=1;fillColor=none;strokeColor=none;fontStyle=1;startSize=25;" vertex="1" parent="kg_pipeline_group">
      <mxGeometry x="10" y="200" width="300" height="70" as="geometry"/>
    </mxCell>
    
    <mxCell id="kgp5" value="Graph Builder Agent&#xa;🏗️ Structure Creation" style="rounded=1;whiteSpace=wrap;html=1;fillColor=#F5A623;strokeColor=#C7851B;fontColor=#ffffff;fontSize=10;" vertex="1" parent="stage3_group">
      <mxGeometry x="10" y="30" width="130" height="30" as="geometry"/>
    </mxCell>
    
    <mxCell id="kgp6" value="Quality Assurance Agent&#xa;🎯 Validation &amp; Verification" style="rounded=1;whiteSpace=wrap;html=1;fillColor=#F5A623;strokeColor=#C7851B;fontColor=#ffffff;fontSize=10;" vertex="1" parent="stage3_group">
      <mxGeometry x="150" y="30" width="140" height="30" as="geometry"/>
    </mxCell>
    
    <!-- Knowledge Graph Database -->
    <mxCell id="kg_database_group" value="Knowledge Graph Database &amp; Access Layer" style="swimlane;whiteSpace=wrap;html=1;fillColor=#e8f5e8;strokeColor=#2e7d32;fontStyle=1;startSize=30;" vertex="1" parent="1">
      <mxGeometry x="650" y="70" width="280" height="200" as="geometry"/>
    </mxCell>
    
    <mxCell id="kgd1" value="Neo4j Knowledge Graph&#xa;🧠 Central Intelligence Hub&#xa;• 10M+ Nodes&#xa;• 50M+ Relationships&#xa;• Sub-100ms Query Response" style="ellipse;whiteSpace=wrap;html=1;fillColor=#4CAF50;strokeColor=#2E7D32;fontColor=#ffffff;fontStyle=1;fontSize=10;" vertex="1" parent="kg_database_group">
      <mxGeometry x="40" y="40" width="200" height="80" as="geometry"/>
    </mxCell>
    
    <mxCell id="query_group" value="Query Processing &amp; Inference [AI]" style="swimlane;whiteSpace=wrap;html=1;fillColor=none;strokeColor=none;fontStyle=1;startSize=25;" vertex="1" parent="kg_database_group">
      <mxGeometry x="10" y="130" width="260" height="60" as="geometry"/>
    </mxCell>
    
    <mxCell id="qpq1" value="Query Parser Agent" style="rounded=1;whiteSpace=wrap;html=1;fillColor=#4CAF50;strokeColor=#2E7D32;fontColor=#ffffff;fontSize=9;" vertex="1" parent="query_group">
      <mxGeometry x="10" y="30" width="80" height="25" as="geometry"/>
    </mxCell>
    
    <mxCell id="qpq2" value="Inference Engine Agent" style="rounded=1;whiteSpace=wrap;html=1;fillColor=#4CAF50;strokeColor=#2E7D32;fontColor=#ffffff;fontSize=9;" vertex="1" parent="query_group">
      <mxGeometry x="100" y="30" width="80" height="25" as="geometry"/>
    </mxCell>
    
    <mxCell id="qpq3" value="Analytics Processor Agent" style="rounded=1;whiteSpace=wrap;html=1;fillColor=#4CAF50;strokeColor=#2E7D32;fontColor=#ffffff;fontSize=9;" vertex="1" parent="query_group">
      <mxGeometry x="190" y="30" width="80" height="25" as="geometry"/>
    </mxCell>
    
    <!-- Usage Examples -->
    <mxCell id="usage_group" value="Knowledge Graph Usage Examples" style="swimlane;whiteSpace=wrap;html=1;fillColor=#f3e5f5;strokeColor=#7b1fa2;fontStyle=1;startSize=30;" vertex="1" parent="1">
      <mxGeometry x="20" y="400" width="900" height="200" as="geometry"/>
    </mxCell>
    
    <mxCell id="tg_queries_group" value="Test Generation Queries [AI]" style="swimlane;whiteSpace=wrap;html=1;fillColor=none;strokeColor=none;fontStyle=1;startSize=25;" vertex="1" parent="usage_group">
      <mxGeometry x="10" y="40" width="280" height="150" as="geometry"/>
    </mxCell>
    
    <mxCell id="tgq1" value="🎯 Untested Component Discovery:&#xa;MATCH (app:Application)-[:CONTAINS]->(comp:Component)&#xa;WHERE NOT EXISTS((comp)-[:TESTED_BY]->(:TestCase))&#xa;AND comp.risk_level IN ['HIGH', 'CRITICAL']&#xa;RETURN app.name, comp.name, comp.complexity_score&#xa;ORDER BY comp.complexity_score DESC" style="rounded=1;whiteSpace=wrap;html=1;fillColor=#E8F5E8;strokeColor=#2E7D32;fontSize=8;align=left;" vertex="1" parent="tg_queries_group">
      <mxGeometry x="10" y="30" width="260" height="110" as="geometry"/>
    </mxCell>
    
    <mxCell id="ev_queries_group" value="Evidence Validation Queries [AI]" style="swimlane;whiteSpace=wrap;html=1;fillColor=none;strokeColor=none;fontStyle=1;startSize=25;" vertex="1" parent="usage_group">
      <mxGeometry x="300" y="40" width="280" height="150" as="geometry"/>
    </mxCell>
    
    <mxCell id="evq1" value="📋 Required Evidence Mapping:&#xa;MATCH (change:Change {type: $changeType})&#xa;      -[:SUBJECT_TO]->(policy:CompliancePolicy)&#xa;      -[:REQUIRES]->(evidence:EvidenceType)&#xa;WHERE policy.framework IN $applicableFrameworks&#xa;RETURN DISTINCT evidence.type, evidence.mandatory" style="rounded=1;whiteSpace=wrap;html=1;fillColor=#E8F5E8;strokeColor=#2E7D32;fontSize=8;align=left;" vertex="1" parent="ev_queries_group">
      <mxGeometry x="10" y="30" width="260" height="110" as="geometry"/>
    </mxCell>
    
    <mxCell id="learning_group" value="Continuous Learning &amp; Optimization Loop [AI]" style="swimlane;whiteSpace=wrap;html=1;fillColor=none;strokeColor=none;fontStyle=1;startSize=25;" vertex="1" parent="usage_group">
      <mxGeometry x="590" y="40" width="300" height="150" as="geometry"/>
    </mxCell>
    
    <mxCell id="fp1" value="Human Feedback Analyzer&#xa;📝 Sentiment &amp; Content Analysis" style="rounded=1;whiteSpace=wrap;html=1;fillColor=#795548;strokeColor=#5D4037;fontColor=#ffffff;fontSize=10;" vertex="1" parent="learning_group">
      <mxGeometry x="10" y="30" width="130" height="35" as="geometry"/>
    </mxCell>
    
    <mxCell id="kr1" value="Relationship Strength Adjuster&#xa;⚖️ Confidence Scoring" style="rounded=1;whiteSpace=wrap;html=1;fillColor=#795548;strokeColor=#5D4037;fontColor=#ffffff;fontSize=10;" vertex="1" parent="learning_group">
      <mxGeometry x="10" y="75" width="130" height="35" as="geometry"/>
    </mxCell>
    
    <mxCell id="sie1" value="Agent Behavior Adjustment&#xa;🎛️ Parameter Optimization" style="rounded=1;whiteSpace=wrap;html=1;fillColor=#795548;strokeColor=#5D4037;fontColor=#ffffff;fontSize=10;" vertex="1" parent="learning_group">
      <mxGeometry x="160" y="30" width="130" height="35" as="geometry"/>
    </mxCell>
    
    <mxCell id="sie2" value="Process Optimization&#xa;🔄 Workflow Refinement" style="rounded=1;whiteSpace=wrap;html=1;fillColor=#795548;strokeColor=#5D4037;fontColor=#ffffff;fontSize=10;" vertex="1" parent="learning_group">
      <mxGeometry x="160" y="75" width="130" height="35" as="geometry"/>
    </mxCell>
    
    <!-- Main Flow Connections -->
    <mxCell id="flow1" value="" style="endArrow=classic;html=1;rounded=0;exitX=1;exitY=0.5;exitDx=0;exitDy=0;entryX=0;entryY=0.5;entryDx=0;entryDy=0;strokeColor=#FF5722;strokeWidth=2;" edge="1" parent="1" source="rts1" target="kgp1">
      <mxGeometry width="50" height="50" relative="1" as="geometry">
        <mxPoint x="400" y="300" as="sourcePoint"/>
        <mxPoint x="450" y="250" as="targetPoint"/>
      </mxGeometry>
    </mxCell>
    
    <mxCell id="flow2" value="" style="endArrow=classic;html=1;rounded=0;exitX=1;exitY=0.5;exitDx=0;exitDy=0;entryX=0;entryY=0.5;entryDx=0;entryDy=0;strokeColor=#4CAF50;strokeWidth=2;" edge="1" parent="1" source="kgp1" target="kgp2">
      <mxGeometry width="50" height="50" relative="1" as="geometry">
        <mxPoint x="400" y="300" as="sourcePoint"/>
        <mxPoint x="450" y="250" as="targetPoint"/>
      </mxGeometry>
    </mxCell>
    
    <mxCell id="flow3" value="" style="endArrow=classic;html=1;rounded=0;exitX=0.5;exitY=1;exitDx=0;exitDy=0;entryX=0.5;entryY=0;entryDx=0;entryDy=0;strokeColor=#4CAF50;strokeWidth=2;" edge="1" parent="1" source="kgp2" target="kgp3">
      <mxGeometry width="50" height="50" relative="1" as="geometry">
        <mxPoint x="400" y="300" as="sourcePoint"/>
        <mxPoint x="450" y="250" as="targetPoint"/>
      </mxGeometry>
    </mxCell>
    
    <mxCell id="flow4" value="" style="endArrow=classic;html=1;rounded=0;exitX=1;exitY=0.5;exitDx=0;exitDy=0;entryX=0;entryY=0.5;entryDx=0;entryDy=0;strokeColor=#4CAF50;strokeWidth=2;" edge="1" parent="1" source="kgp3" target="kgp4">
      <mxGeometry width="50" height="50" relative="1" as="geometry">
        <mxPoint x="400" y="300" as="sourcePoint"/>
        <mxPoint x="450" y="250" as="targetPoint"/>
      </mxGeometry>
    </mxCell>
    
    <mxCell id="flow5" value="" style="endArrow=classic;html=1;rounded=0;exitX=0.5;exitY=1;exitDx=0;exitDy=0;entryX=0.5;entryY=0;entryDx=0;entryDy=0;strokeColor=#4CAF50;strokeWidth=2;" edge="1" parent="1" source="kgp4" target="kgp5">
      <mxGeometry width="50" height="50" relative="1" as="geometry">
        <mxPoint x="400" y="300" as="sourcePoint"/>
        <mxPoint x="450" y="250" as="targetPoint"/>
      </mxGeometry>
    </mxCell>
    
    <mxCell id="flow6" value="" style="endArrow=classic;html=1;rounded=0;exitX=1;exitY=0.5;exitDx=0;exitDy=0;entryX=0;entryY=0.5;entryDx=0;entryDy=0;strokeColor=#4CAF50;strokeWidth=2;" edge="1" parent="1" source="kgp5" target="kgp6">
      <mxGeometry width="50" height="50" relative="1" as="geometry">
        <mxPoint x="400" y="300" as="sourcePoint"/>
        <mxPoint x="450" y="250" as="targetPoint"/>
      </mxGeometry>
    </mxCell>
    
    <mxCell id="flow7" value="" style="endArrow=classic;html=1;rounded=0;exitX=1;exitY=0.5;exitDx=0;exitDy=0;entryX=0;entryY=0.5;entryDx=0;entryDy=0;strokeColor=#2196F3;strokeWidth=2;" edge="1" parent="1" source="kgp6" target="kgd1">
      <mxGeometry width="50" height="50" relative="1" as="geometry">
        <mxPoint x="400" y="300" as="sourcePoint"/>
        <mxPoint x="450" y="250" as="targetPoint"/>
      </mxGeometry>
    </mxCell>
    
    <mxCell id="flow8" value="" style="endArrow=classic;html=1;rounded=0;exitX=0.5;exitY=1;exitDx=0;exitDy=0;entryX=0.5;entryY=0;entryDx=0;entryDy=0;strokeColor=#9C27B0;strokeWidth=2;" edge="1" parent="1" source="kgd1" target="qpq2">
      <mxGeometry width="50" height="50" relative="1" as="geometry">
        <mxPoint x="400" y="300" as="sourcePoint"/>
        <mxPoint x="450" y="250" as="targetPoint"/>
      </mxGeometry>
    </mxCell>
    
    <mxCell id="flow9" value="Usage Analytics" style="endArrow=classic;html=1;rounded=0;exitX=0.5;exitY=0;exitDx=0;exitDy=0;entryX=0.5;entryY=1;entryDx=0;entryDy=0;strokeColor=#795548;strokeWidth=1;dashed=1;" edge="1" parent="1" source="tgq1" target="fp1">
      <mxGeometry width="50" height="50" relative="1" as="geometry">
        <mxPoint x="400" y="300" as="sourcePoint"/>
        <mxPoint x="450" y="250" as="targetPoint"/>
      </mxGeometry>
    </mxCell>
    
    <mxCell id="flow10" value="Feedback" style="endArrow=classic;html=1;rounded=0;exitX=1;exitY=0.5;exitDx=0;exitDy=0;entryX=0;entryY=0.5;entryDx=0;entryDy=0;strokeColor=#795548;strokeWidth=1;dashed=1;" edge="1" parent="1" source="fs1" target="fp1">
      <mxGeometry width="50" height="50" relative="1" as="geometry">
        <mxPoint x="400" y="300" as="sourcePoint"/>
        <mxPoint x="450" y="250" as="targetPoint"/>
      </mxGeometry>
    </mxCell>
    
    <!-- Statistics Box -->
    <mxCell id="stats_group" value="Real-Time KG Metrics" style="swimlane;whiteSpace=wrap;html=1;fillColor=#fff3e0;strokeColor=#f57c00;fontStyle=1;startSize=25;" vertex="1" parent="1">
      <mxGeometry x="650" y="300" width="280" height="120" as="geometry"/>
    </mxCell>
    
    <mxCell id="stats" value="📊 Current Statistics:&#xa;• Nodes: 12.3M (growing +50K/day)&#xa;• Relationships: 67.8M (growing +200K/day)&#xa;• Query Response Time: 45ms average&#xa;• Cache Hit Rate: 89%&#xa;• Data Freshness: &lt;5 minutes&#xa;• Inference Accuracy: 94.7%" style="rounded=1;whiteSpace=wrap;html=1;fillColor=#FFF3E0;strokeColor=#F57C00;fontSize=10;align=left;" vertex="1" parent="stats_group">
      <mxGeometry x="10" y="30" width="260" height="80" as="geometry"/>
    </mxCell>
    
  </root>
</mxGraphModel>
